<svg width="220" height="35" viewBox="0 0 220 35" fill="none" xmlns="http://www.w3.org/2000/svg">
<path d="M25.2497 21.6982C25.2497 28.9063 19.9097 33.8796 12.6249 33.8796C5.33686 33.8796 0 28.9063 0 21.6982C0 14.4901 5.34007 9.5168 12.6249 9.5168C19.913 9.5168 25.2497 14.4901 25.2497 21.6982ZM74.4528 21.6982C74.4528 28.9063 69.1128 33.8796 61.8279 33.8796C54.5431 33.8796 49.2031 28.9063 49.2031 21.6982C49.2031 14.4901 54.5431 9.5168 61.8279 9.5168C69.1128 9.5168 74.4528 14.4901 74.4528 21.6982ZM100.139 19.0304V33.0876H94.0063V20.329C94.0063 16.6544 92.2734 15.1377 89.3177 15.1377C86.2144 15.1377 83.9777 16.8661 83.9777 21.8425V33.0876H77.8449V10.2351H83.907V13.6948H84.0515C85.5662 11.1008 88.1656 9.51359 91.4839 9.51359C96.4581 9.5168 100.139 12.2551 100.139 19.0304ZM192.584 10.2351V33.0876H186.451V23.8594H176.637V33.0876H170.504V10.2351H176.637V18.5237H186.451V10.2351H192.584ZM159.179 10.2351V13.5506H159.036C157.954 11.2451 155.066 9.51359 151.388 9.51359C145.4 9.51359 140.493 13.8391 140.493 21.6244C140.493 29.4835 145.255 33.8796 151.388 33.8796C155.14 33.8796 157.81 32.1481 159.036 29.9869H159.179V33.0876H165.312V10.2351H159.179ZM126.716 10.0202C122.964 10.0202 120.079 11.7517 118.565 14.4901H118.42C118.635 9.44305 120.368 7.28189 126.283 6.70472L135.445 5.83898V0L125.272 0.791999C115.317 1.584 112.358 8.36247 112.358 19.1746C112.358 28.7621 117.913 33.8796 125.127 33.8796C132.271 33.8796 137.752 28.7621 137.752 21.6244C137.752 14.4901 132.775 10.0202 126.716 10.0202ZM27.4865 10.2351V15.4263H39.5338L27.1977 28.1848V33.0876H47.6883V27.8963H34.7746L47.1106 15.064V10.2351H27.4865ZM152.977 28.3292C149.295 28.3292 146.917 25.5908 146.917 21.7688C146.917 17.8761 149.299 15.064 152.977 15.064C156.654 15.064 159.179 17.8023 159.179 21.695C159.179 25.517 156.654 28.3292 152.977 28.3292ZM6.42156 21.6982C6.42156 25.6614 8.87337 28.2586 12.6249 28.2586C16.3764 28.2586 18.8282 25.6646 18.8282 21.6982C18.8282 17.7317 16.3764 15.1377 12.6249 15.1377C8.87337 15.1377 6.42156 17.7317 6.42156 21.6982ZM55.6246 21.6982C55.6246 25.6614 58.0764 28.2586 61.8279 28.2586C65.5794 28.2586 68.0312 25.6646 68.0312 21.6982C68.0312 17.7317 65.5794 15.1377 61.8279 15.1377C58.0764 15.1377 55.6246 17.7317 55.6246 21.6982ZM125.053 28.3292C121.52 28.3292 118.776 25.6614 118.776 21.6982C118.776 17.6612 121.517 15.2821 125.053 15.2821C128.59 15.2821 131.331 17.6612 131.331 21.6982C131.331 25.6614 128.59 28.3292 125.053 28.3292ZM212.208 33.0876L203.913 22.131V33.0876H197.78V10.2351H203.913V19.6781L211.561 10.2351H219.137L209.757 20.6144L220 33.0843H212.208V33.0876Z" fill="#005BFF"/>
</svg>
